# xmcd
#
# Track frame offsets: 
#        150
#        22526
#        46295
#        62797
#        85422
#        106879
#        128278
#        148952
#        168968
#        188406
#
# Disc length: 2754 seconds
#
# Revision: 0
# Processed by: cddbd v1.5.2PL0 Copyright (c) Steve Scherf et al.
# Submitted via: ExactAudioCopyFreeDBPlugin 1.0
#
DISCID=740ac00a
DTITLE=คาราบาว&ปาน ธนพร - หนุ่มบาว สาวปาน(รีเทิร์น)
DYEAR=1900
DGENRE=
TTITLE0=บาว ปาน(รีเทิร์น)
TTITLE1=ขอจันทร์(อันลิมิเตด)
TTITLE2=ต่อไม่ต่อ
TTITLE3=ลมละเมอ
TTITLE4=อย่ารักคนอื่นนักเลย
TTITLE5=โทรข้างเดียว
TTITLE6=ลายคราม
TTITLE7=เสกหวย
TTITLE8=เลิกเพราะรัก
TTITLE9=ใช่เธอหรือเปล่า
EXTD=
EXTT0=
EXTT1=
EXTT2=
EXTT3=
EXTT4=
EXTT5=
EXTT6=
EXTT7=
EXTT8=
EXTT9=
PLAYORDER=
